<svg width="17" height="20" viewBox="0 0 17 20" fill="none" xmlns="http://www.w3.org/2000/svg">
<path d="M15.6761 9.35598L2.0919 1.05425C1.97748 0.984325 1.8465 0.946143 1.71243 0.943633C1.57836 0.941122 1.44605 0.974373 1.32909 1.03996C1.21213 1.10556 1.11476 1.20112 1.04699 1.31683C0.979223 1.43253 0.943501 1.56421 0.943501 1.6983V18.3018C0.943501 18.4359 0.979223 18.5675 1.04699 18.6832C1.11476 18.7989 1.21213 18.8945 1.32909 18.9601C1.44605 19.0257 1.57836 19.0589 1.71243 19.0564C1.8465 19.0539 1.97748 19.0157 2.0919 18.9458L15.6761 10.6441C15.7864 10.5767 15.8776 10.482 15.9408 10.3692C16.0041 10.2565 16.0373 10.1293 16.0373 10C16.0373 9.87073 16.0041 9.7436 15.9408 9.63082C15.8776 9.51804 15.7864 9.42341 15.6761 9.35598Z" stroke="white" stroke-width="1.875" stroke-linecap="round" stroke-linejoin="round"/>
</svg>
